# xmcd CD database file
# Copyright (C) 1993-1998 Ti Kan
#
# Track frame offsets:
#  150
#  6197
#  21560
#  39710
#  58010
#  71307
#  76782
#  102747
#  122604
#  142135
#  159262
#  164127
#  175042
#  193662
#  212062
#  232215
#  241325
#  270492
#  285990
#  286665
#  291237
#  295687
#  300265
#  304842
#  306415
#  307990
#  309565
#  311137
#  314575
#  318017
#  321462
#  324910
#  328355
#
# Disc length: 4426 seconds
#
# Revision: 1
# Processed by: cddbd v1.4b41PL1 Copyright (c) Steve Scherf et al.
# Submitted via: CDWizzard Release:4.35
#
DISCID=eb114821
DTITLE=Bass Mekanik - Max Killa Hertz
DYEAR=1900
DGENRE=
TTITLE0=Bring The Bass Back
TTITLE1=Aktivate/Terminate
TTITLE2=Max Killa Hertz
TTITLE3=Make It Drop
TTITLE4=Boom In It
TTITLE5=Sub Bonus Beat
TTITLE6=How Do U Say...Bass? (Mekanik Remix)
TTITLE7=808 Tune Up
TTITLE8=Urban Jamz
TTITLE9=Sub-Generation
TTITLE10=Bass Scale
TTITLE11=Subsonic Beat
TTITLE12=Critical Level
TTITLE13=Feel The Music
TTITLE14=Jungle Mekanik
TTITLE15=2 Minute Swing
TTITLE16=Competition Hertz
TTITLE17=Sine Bombs
TTITLE18=Intro To Test Section
TTITLE19=10 Hz - 200 Hz
TTITLE20=70 Hz - 800 Hz
TTITLE21=200 Hz - 4  Khz
TTITLE22=2 Khz - 20 Khz
TTITLE23=10 Hz - 200 Hz
TTITLE24=70 Hz - 800 Hz
TTITLE25=200 Hz - 2 Khz
TTITLE26=2 Khz - 20 Khz
TTITLE27=50 Hz
TTITLE28=200 Hz
TTITLE29=800 Hz
TTITLE30=1 Khz
TTITLE31=4 Khz
TTITLE32=8 Khz
EXTD=submitted by hairen
EXTT0=
EXTT1=
EXTT2=
EXTT3=
EXTT4=
EXTT5=
EXTT6=
EXTT7=
EXTT8=
EXTT9=
EXTT10=
EXTT11=
EXTT12=
EXTT13=
EXTT14=
EXTT15=
EXTT16=
EXTT17=
EXTT18=
EXTT19=
EXTT20=
EXTT21=
EXTT22=
EXTT23=
EXTT24=
EXTT25=
EXTT26=
EXTT27=
EXTT28=
EXTT29=
EXTT30=
EXTT31=
EXTT32=
PLAYORDER=
